<svg width="124" height="103" viewBox="0 0 124 103" fill="none" xmlns="http://www.w3.org/2000/svg">
<path d="M116.316 90.7881C115.468 36.421 100.948 16.9893 92.4695 18.5819H67.0336H62.5293V48.314H72.8626V24.4222H86.6404V88.1336H72.8626V63.7109H62.5293V90.7881H116.316Z" fill="#00A0C6"/>
<path d="M76.0421 12.211V1.06152H62.5293V18.582H67.0336V12.211H76.0421Z" fill="#00A0C6"/>
<path d="M123.205 90.7881H116.316H62.5293V101.938H123.205V90.7881Z" fill="#00A0C6"/>
<path d="M67.0336 18.582H92.4695C100.033 18.582 114.621 27.5705 115.142 90.5149M67.0336 18.582V12.211H76.0421V1.06152H62.5293V18.582M67.0336 18.582H62.5293M62.5293 90.7882V101.938H123.205V90.7882H116.316H62.5293ZM62.5293 90.7882V63.711H72.8626V88.1337H86.6404V24.4223H72.8626V48.3141H62.5293V18.582" stroke="#00A0C6"/>
<path d="M7.94922 90.7881C8.79708 36.421 23.3167 16.9893 31.7954 18.5819H57.2313H61.7355V48.314H51.4022V24.4222H37.6244V88.1336H51.4022V63.7109H61.7355V90.7881H7.94922Z" fill="#00ACD4"/>
<path d="M48.2227 12.211V1.06152H61.7355V18.582H57.2312V12.211H48.2227Z" fill="#00ACD4"/>
<path d="M1.06055 90.7881H7.94944H61.7358V101.938H1.06055V90.7881Z" fill="#00ACD4"/>
<path d="M7.94944 90.7882C8.7973 36.4211 23.317 18.582 31.7956 18.582H57.2315M7.94944 90.7882H1.06055V101.938H61.7358V90.7882M7.94944 90.7882H61.7358M57.2315 18.582V12.211H48.2229V1.06152H61.7358V18.582M57.2315 18.582H61.7358M61.7358 90.7882V63.711H51.4024V88.1337H37.6246V24.4223H51.4024V48.3141H61.7358V18.582" stroke="#00A0C6"/>
<path d="M62.5206 48.899H73.4618V24.9697H85.966V87.9142H73.4618L72.9408 63.4647H62.5206H50.9933V87.9142H38.0332V24.9697H50.9933V48.899H62.5206Z" fill="white"/>
</svg>
